#!OML:ASF X:\für Bonn\!DataBase\2005_08_12_Daniel\c3d\Daniel.ASF
:FULLY-SPECIFIED
:DEGREES
31
root 1.93118 17.5301 18.0566 -728.542 10.6369 -1.7569
lowerback 6.90264 -1.9073 3.23285
upperback 1.58163 -2.36201 -2.09398
thorax -2.45275 -1.20148 -3.76995
lowerneck 1.96955 -0.725824 0.132599
upperneck 7.17787 -0.873665 -1.60771
head 1.89107 -0.462037 -0.533262
rclavicle 5.09386e-014 -6.36111e-015
rhumerus -20.4005 19.7079 -76.2329
rradius 104.415
rwrist 10.1845
rhand -31.1717 20.8331
rfingers 7.12502
rthumb -4.44894 -9.10019
lclavicle 5.09386e-014 -6.36111e-015
lhumerus -65.2945 53.3501 33.8505
lradius 16.3299
lwrist -52.5034
lhand -9.1296 -5.62489
lfingers 7.12502
lthumb 16.8217 23.6665
rfemur 6.23171 23.4983 26.342
rtibia 19.3111
rfoot -23.1924 -26.271
rtoes -13.0819
lfemur -1.19484 -10.8619 -16.2412
ltibia 33.1722
lfoot -22.9441 2.31433
ltoes -13.6699
32
root 1.93635 17.5314 18.0757 -728.485 10.6653 -1.79026
lowerback 6.80431 -1.81627 3.24802
upperback 1.5604 -2.2435 -2.13851
thorax -2.41152 -1.14221 -3.83859
lowerneck 2.02492 -0.838607 0.157867
upperneck 7.18734 -1.03158 -1.47734
head 1.88325 -0.537299 -0.498019
rclavicle -7.1314e-015 -7.95139e-015
rhumerus -18.0283 19.2184 -74.7144
rradius 104.362
rwrist 9.54479
rhand -30.7978 20.3793
rfingers 7.12502
rthumb -4.08786 -9.5612
lclavicle -7.1314e-015 -7.95139e-015
lhumerus -63.366 52.5091 35.9101
lradius 16.5007
lwrist -50.8744
lhand -9.44081 -5.87207
lfingers 7.12502
lthumb 16.5221 23.4445
rfemur 6.32856 23.5959 26.417
rtibia 19.1933
rfoot -23.2575 -26.4045
rtoes -13.1594
lfemur -1.13713 -10.9828 -16.2423
ltibia 33.1057
lfoot -23.0129 2.40812
ltoes -13.6364
33
root 1.94206 17.5319 18.0928 -728.45 10.6705 -1.81406
lowerback 6.74811 -1.71957 3.26275
upperback 1.53387 -2.11627 -2.18019
thorax -2.39804 -1.07915 -3.90339
lowerneck 2.11901 -0.95078 0.151391
upperneck 7.17835 -1.18945 -1.33764
head 1.86314 -0.612998 -0.454082
rclavicle -1.17034e-014 1.11319e-014
rhumerus -15.5048 18.7276 -73.1859
rradius 104.112
rwrist 8.87165
rhand -30.3372 19.8205
rfingers 7.12502
rthumb -3.64308 -10.1281
lclavicle -1.17034e-014 1.11319e-014
lhumerus -61.6634 51.6928 37.7371
lradius 16.6758
lwrist -49.4032
lhand -9.76543 -6.0758
lfingers 7.12502
lthumb 16.2095 23.2665
rfemur 6.41488 23.6169 26.4573
rtibia 19.0958
rfoot -23.288 -26.4481
rtoes -13.1852
lfemur -1.05399 -11.1318 -16.2687
ltibia 33.0348
lfoot -23.0675 2.53793
ltoes -13.5071
34
root 1.94828 17.5335 18.1085 -728.399 10.669 -1.8471
lowerback 6.68697 -1.61909 3.3051
upperback 1.49899 -1.98242 -2.22901
thorax -2.3907 -1.01326 -3.99171
lowerneck 2.19209 -1.06788 0.14318
upperneck 7.19263 -1.35403 -1.18954
head 1.85454 -0.692133 -0.407579
rclavicle 6.54747e-014 -7.15625e-015
rhumerus -12.8205 18.2378 -71.6466
rradius 103.705
rwrist 8.15334
rhand -29.8262 19.1327
rfingers 7.12502
rthumb -3.14961 -10.8238
lclavicle 6.54747e-014 -7.15625e-015
lhumerus -60.0222 50.8596 39.4558
lradius 16.8437
lwrist -48.0096
lhand -9.98977 -6.25836
lfingers 7.12502
lthumb 15.9935 23.1014
rfemur 6.45048 23.5273 26.4531
rtibia 19.0094
rfoot -23.2716 -26.3671
rtoes -13.1736
lfemur -0.990664 -11.257 -16.2769
ltibia 32.9638
lfoot -23.1327 2.64878
ltoes -13.3316
35
root 1.95453 17.5346 18.1238 -728.351 10.6647 -1.88084
lowerback 6.61558 -1.52165 3.35693
upperback 1.47461 -1.85228 -2.27958
thorax -2.36703 -0.948775 -4.08707
lowerneck 2.28141 -1.18002 0.114407
upperneck 7.17108 -1.51263 -1.03618
head 1.8321 -0.768644 -0.355528
rclavicle 1.54804e-014 -9.54166e-015
rhumerus -10.0468 17.7026 -70.139
rradius 103.123
rwrist 7.42489
rhand -29.279 18.4491
rfingers 7.12502
rthumb -2.62112 -11.5146
lclavicle 1.54804e-014 -9.54166e-015
lhumerus -58.5839 50.119 40.9165
lradius 17.0292
lwrist -46.8429
lhand -10.1347 -6.40019
lfingers 7.12502
lthumb 15.854 22.9707
rfemur 6.46731 23.3565 26.4262
rtibia 18.9323
rfoot -23.1787 -26.2297
rtoes -13.2701
lfemur -0.923007 -11.3802 -16.2851
ltibia 32.8892
lfoot -23.1713 2.76064
ltoes -13.1451
36
root 1.96002 17.5364 18.1387 -728.31 10.687 -1.91714
lowerback 6.54251 -1.4343 3.41956
upperback 1.45895 -1.73522 -2.34193
thorax -2.33487 -0.890558 -4.19958
lowerneck 2.34142 -1.29446 0.0926162
upperneck 7.17517 -1.67464 -0.871165
head 1.82346 -0.846663 -0.301456
rclavicle -2.03754e-015 1.98785e-014
rhumerus -7.34029 17.1039 -68.7193
rradius 102.408
rwrist 6.72072
rhand -28.7665 17.9148
rfingers 7.12502
rthumb -2.1262 -12.0543
lclavicle -2.03754e-015 1.98785e-014
lhumerus -57.3058 49.4608 42.15
lradius 17.1956
lwrist -45.9037
lhand -10.2564 -6.53166
lfingers 7.12502
lthumb 15.7367 22.8485
rfemur 6.48082 23.1089 26.3814
rtibia 18.8556
rfoot -23.0987 -26.0306
rtoes -13.2391
lfemur -0.860088 -11.537 -16.295
ltibia 32.815
lfoot -23.2142 2.86621
ltoes -13.0037
37
root 1.96512 17.5374 18.1534 -728.272 10.7182 -1.95266
lowerback 6.47222 -1.34361 3.49779
upperback 1.44528 -1.61294 -2.41801
thorax -2.30194 -0.829775 -4.33554
lowerneck 2.39625 -1.41105 0.0764531
upperneck 7.17275 -1.83981 -0.700367
head 1.81402 -0.926059 -0.246551
rclavicle 2.36554e-014 -2.38542e-015
rhumerus -4.71063 16.4315 -67.3842
rradius 101.558
rwrist 5.99227
rhand -28.2444 17.4895
rfingers 7.12502
rthumb -1.62192 -12.484
lclavicle 2.36554e-014 -2.38542e-015
lhumerus -56.1356 48.8455 43.2353
lradius 17.3883
lwrist -45.1826
lhand -10.3473 -6.65562
lfingers 7.12502
lthumb 15.6492 22.7315
rfemur 6.48787 22.8296 26.3283
rtibia 18.7887
rfoot -22.989 -25.8099
rtoes -13.2987
lfemur -0.800796 -11.673 -16.2976
ltibia 32.7411
lfoot -23.2624 2.9542
ltoes -12.9237
38
root 1.9703 17.5386 18.1669 -728.231 10.7463 -1.98716
lowerback 6.40648 -1.2547 3.59157
upperback 1.4242 -1.49216 -2.50179
thorax -2.27926 -0.770181 -4.488
lowerneck 2.48434 -1.5225 0.0364573
upperneck 7.15741 -1.9994 -0.508156
head 1.79555 -1.00289 -0.18057
rclavicle 1.62755e-014 1.35174e-014
rhumerus -2.08481 15.7507 -66.1538
rradius 100.541
rwrist 5.34229
rhand -27.7223 17.1451
rfingers 7.12502
rthumb -1.11772 -12.8318
lclavicle 1.62755e-014 1.35174e-014
lhumerus -55.0126 48.2205 44.2467
lradius 17.5713
lwrist -44.5243
lhand -10.4144 -6.7663
lfingers 7.12502
lthumb 15.5846 22.6258
rfemur 6.48452 22.5418 26.2671
rtibia 18.725
rfoot -22.8809 -25.5769
rtoes -13.3643
lfemur -0.744796 -11.8336 -16.3094
ltibia 32.6683
lfoot -23.3003 3.07019
ltoes -12.7894
39
root 1.97571 17.5396 18.1805 -728.196 10.7633 -2.00836
lowerback 6.34397 -1.16731 3.67543
upperback 1.40378 -1.37414 -2.591
thorax -2.25713 -0.711895 -4.64012
lowerneck 2.58237 -1.63335 0.00557638
upperneck 7.14259 -2.15787 -0.319453
head 1.77591 -1.0791 -0.117079
rclavicle 1.95057e-014 3.02153e-014
rhumerus 0.533976 15.0831 -65.0305
rradius 99.3383
rwrist 4.72571
rhand -27.2481 16.9215
rfingers 7.12502
rthumb -0.659725 -13.0572
lclavicle 1.95057e-014 3.02153e-014
lhumerus -54.0681 47.7251 45.0032
lradius 17.7118
lwrist -44.1084
lhand -10.5336 -6.88964
lfingers 7.12502
lthumb 15.4697 22.5114
rfemur 6.49434 22.2738 26.1993
rtibia 18.6593
rfoot -22.7927 -25.3483
rtoes -13.401
lfemur -0.682497 -11.9427 -16.3339
ltibia 32.6021
lfoot -23.3247 3.16891
ltoes -12.6918
40
root 1.98103 17.5411 18.1924 -728.153 10.7938 -2.03445
lowerback 6.28983 -1.07749 3.76998
upperback 1.38568 -1.252 -2.6823
thorax -2.23634 -0.651558 -4.80074
lowerneck 2.62376 -1.74567 -0.00226071
upperneck 7.14652 -2.31671 -0.155208
head 1.77201 -1.15546 -0.0656786
rclavicle -1.81888e-014 2.38542e-015
rhumerus 3.18327 14.3677 -63.9858
rradius 97.8763
rwrist 4.12596
rhand -26.7429 16.8421
rfingers 7.12502
rthumb -0.171819 -13.1376
lclavicle -1.81888e-014 2.38542e-015
lhumerus -52.9863 47.1143 45.9237
lradius 17.8586
lwrist -43.5752
lhand -10.6451 -6.9648
lfingers 7.12502
lthumb 15.3624 22.4445
rfemur 6.48468 22.0183 26.1368
rtibia 18.5923
rfoot -22.6711 -25.1618
rtoes -13.5056
lfemur -0.644413 -12.0662 -16.3469
ltibia 32.5401
lfoot -23.3537 3.26425
ltoes -12.6052
41
root 1.98594 17.5418 18.2036 -728.128 10.8035 -2.0685
lowerback 6.25275 -0.982773 3.87716
upperback 1.3762 -1.12215 -2.77948
thorax -2.2148 -0.587213 -4.97526
lowerneck 2.66709 -1.86038 -0.0230912
upperneck 7.14213 -2.48163 0.0600665
head 1.76635 -1.23432 0.00374007
rclavicle 3.04141e-014 -1.59028e-015
rhumerus 5.89742 13.6855 -62.9604
rradius 96.1153
rwrist 3.52411
rhand -26.2835 16.8202
rfingers 7.12502
rthumb 0.271891 -13.1594
lclavicle 3.04141e-014 -1.59028e-015
lhumerus -51.9527 46.556 46.7403
lradius 17.9834
lwrist -43.1484
lhand -10.7775 -7.04075
lfingers 7.12502
lthumb 15.2348 22.3783
rfemur 6.51455 21.8863 26.1231
rtibia 18.5288
rfoot -22.6395 -25.037
rtoes -13.4881
lfemur -0.583501 -12.1912 -16.3621
ltibia 32.4802
lfoot -23.3981 3.38173
ltoes -12.6064
42
root 1.99153 17.5433 18.214 -728.095 10.8274 -2.09145
lowerback 6.21753 -0.890063 3.99021
upperback 1.35802 -0.994837 -2.88737
thorax -2.20293 -0.524594 -5.16416
lowerneck 2.72238 -1.97353 -0.0221567
upperneck 7.14069 -2.64276 0.249481
head 1.7594 -1.31126 0.0616882
rclavicle 1.98288e-014 -3.49861e-014
rhumerus 8.63313 13 -61.9911
rradius 94.0693
rwrist 2.96274
rhand -25.8023 16.8789
rfingers 7.12502
rthumb 0.736656 -13.0996
lclavicle 1.98288e-014 -3.49861e-014
lhumerus -50.8876 45.9191 47.601
lradius 18.1049
lwrist -42.6145
lhand -10.9236 -7.02849
lfingers 7.12502
lthumb 15.0941 22.4012
rfemur 6.52675 21.7018 26.0786
rtibia 18.4652
rfoot -22.5951 -24.8897
rtoes -13.4399
lfemur -0.539455 -12.3161 -16.3842
ltibia 32.4242
lfoot -23.4283 3.47231
ltoes -12.5107
43
root 1.99637 17.5447 18.2234 -728.057 10.8454 -2.10397
lowerback 6.19507 -0.793169 4.0771
upperback 1.33889 -0.863037 -2.98708
thorax -2.19713 -0.459697 -5.32992
lowerneck 2.73606 -2.09372 -0.00392454
upperneck 7.16333 -2.81155 0.406045
head 1.76701 -1.3921 0.105927
rclavicle -1.83876e-015 -3.18055e-014
rhumerus 11.3874 12.33 -61.0318
rradius 91.766
rwrist 2.42296
rhand -25.3006 16.9565
rfingers 7.12502
rthumb 1.22126 -13.0197
lclavicle -1.83876e-015 -3.18055e-014
lhumerus -49.855 45.3065 48.441
lradius 18.244
lwrist -42.0949
lhand -11.0573 -6.95727
lfingers 7.12502
lthumb 14.9653 22.482
rfemur 6.53194 21.5595 26.033
rtibia 18.4028
rfoot -22.5335 -24.7754
rtoes -13.4707
lfemur -0.507343 -12.4164 -16.4112
ltibia 32.3696
lfoot -23.4362 3.57514
ltoes -12.4221
